<svg width="12" height="12" viewBox="0 0 12 12" fill="none" xmlns="http://www.w3.org/2000/svg">
<path d="M5.78894 0.100784L5.60134 0.288914C5.46734 0.423292 5.46734 0.611422 5.60134 0.745801L10.3719 5.52968H0.321608C0.134003 5.52968 0 5.69093 0 5.85218V6.12094C0 6.30907 0.134003 6.44345 0.321608 6.44345H10.3719L5.60134 11.2542C5.46734 11.3886 5.46734 11.5767 5.60134 11.7111L5.78894 11.8992C5.92295 12.0336 6.11055 12.0336 6.24456 11.8992L11.8995 6.22844C12.0335 6.09406 12.0335 5.90593 11.8995 5.77156L6.24456 0.100784C6.11055 -0.0335946 5.92295 -0.0335946 5.78894 0.100784Z" fill="#35414B"/>
</svg>
