<svg width="18" height="15" viewBox="0 0 18 15" fill="none" xmlns="http://www.w3.org/2000/svg">
<path d="M17.5574 3.43194V2.31553C17.5574 1.03661 16.521 0 15.2424 0H2.62586C1.3472 0 0.310791 1.03661 0.310791 2.31553V3.43194C0.310791 3.54606 0.403394 3.63868 0.517494 3.63868H17.3507C17.4648 3.63868 17.5574 3.54606 17.5574 3.43194Z" fill="#117BD4"/>
<path d="M0.310791 5.61299V12.6836C0.310791 13.9625 1.3472 14.9991 2.62586 14.9991H15.2424C16.521 14.9991 17.5574 13.9625 17.5574 12.6836V5.61299C17.5574 5.49887 17.4648 5.40625 17.3507 5.40625H0.517494C0.403394 5.40625 0.310791 5.49887 0.310791 5.61299ZM5.60238 11.0297C5.60238 11.3952 5.30638 11.6913 4.94093 11.6913H4.27948C3.91403 11.6913 3.61803 11.3952 3.61803 11.0297V10.3681C3.61803 10.0026 3.91403 9.70651 4.27948 9.70651H4.94093C5.30638 9.70651 5.60238 10.0026 5.60238 10.3681V11.0297Z" fill="#117BD4"/>
</svg>
