<svg width="17" height="15" viewBox="0 0 17 15" fill="none" xmlns="http://www.w3.org/2000/svg">
<path d="M15.7112 0H1.86759C0.967864 0 0.23877 0.746094 0.23877 1.6668V13.3336C0.23877 14.2539 0.967864 15 1.86759 15H14.897C15.7963 15 16.5258 14.2539 16.5258 13.3332V4.1668C16.5258 3.70664 16.1613 3.33359 15.7116 3.33359H2.68181C2.23214 3.33359 1.86759 2.96055 1.86759 2.50039C1.86759 2.04023 2.23214 1.6668 2.68181 1.6668H16.5258V0.833203C16.5258 0.373047 16.1613 0 15.7112 0ZM13.6755 7.9168C14.35 7.9168 14.897 8.47656 14.897 9.1668C14.897 9.85703 14.35 10.4168 13.6755 10.4168C13.001 10.4168 12.454 9.85703 12.454 9.1668C12.454 8.47656 13.001 7.9168 13.6755 7.9168Z" fill="#9BA0A4"/>
</svg>
